<svg xmlns="http://www.w3.org/2000/svg" viewBox="0 0 420 340" role="img" aria-label="ภาพประกอบ: ผู้คนหลากหลายล้อมรอบโลกด้วยสันติภาพ">
  <rect width="420" height="340" rx="24" fill="#DCEEFF"/>
  <circle cx="210" cy="150" r="78" fill="#1E4E8C"/>
  <path d="M150 130q30-28 60-8t60 4" stroke="#FAF7EF" stroke-width="5" fill="none" stroke-linecap="round"/>
  <path d="M156 172q34 22 62 8t50-12" stroke="#FAF7EF" stroke-width="5" fill="none" stroke-linecap="round"/>
  <circle cx="110" cy="260" r="22" fill="#D9A441"/>
  <circle cx="170" cy="272" r="22" fill="#5FA777"/>
  <circle cx="230" cy="272" r="22" fill="#E76F51"/>
  <circle cx="290" cy="260" r="22" fill="#1E4E8C"/>
  <path d="M96 300q114 34 228 0" stroke="#1E4E8C" stroke-width="5" fill="none" stroke-linecap="round"/>
  <path d="M210 58l7 16 17 2-12 12 3 17-15-8-15 8 3-17-12-12 17-2z" fill="#D9A441"/>
</svg>
