<svg xmlns="http://www.w3.org/2000/svg" viewBox="0 0 360 220" role="img" aria-label=" 2#0-: 
1I'2#1"2#2#@#5"#9I">
  <defs><clipPath id="srs"><rect width="360" height="220" rx="16"/></clipPath></defs>
  <g clip-path="url(#srs)">
    <rect width="360" height="220" fill="#FAF7EF"/>
    <rect y="168" width="360" height="52" fill="#F3EBDD"/>
    <rect x="48" y="28" width="264" height="12" rx="4" fill="#1E4E8C"/>
    <rect x="48" y="88" width="264" height="12" rx="4" fill="#1E4E8C"/>
    <rect x="48" y="148" width="264" height="12" rx="4" fill="#1E4E8C"/>
    <rect x="64" y="44" width="44" height="36" rx="4" fill="#DCEEFF" stroke="#1E4E8C" stroke-width="2"/>
    <rect x="116" y="44" width="44" height="36" rx="4" fill="#E3F1E8" stroke="#5FA777" stroke-width="2"/>
    <rect x="168" y="44" width="44" height="36" rx="4" fill="#F3E3C2" stroke="#D9A441" stroke-width="2"/>
    <rect x="220" y="44" width="44" height="36" rx="4" fill="#FFFFFF" stroke="#E76F51" stroke-width="2"/>
    <rect x="88" y="104" width="52" height="36" rx="4" fill="#FFFFFF" stroke="#1E4E8C" stroke-width="2"/>
    <rect x="154" y="104" width="52" height="36" rx="4" fill="#DCEEFF" stroke="#1E4E8C" stroke-width="2"/>
    <rect x="220" y="104" width="52" height="36" rx="4" fill="#E3F1E8" stroke="#5FA777" stroke-width="2"/>
    <g fill="#1E4E8C" opacity="0.75">
      <rect x="72" y="54" width="24" height="3" rx="1.5"/><rect x="124" y="54" width="24" height="3" rx="1.5"/>
      <rect x="176" y="54" width="24" height="3" rx="1.5"/><rect x="96" y="114" width="30" height="3" rx="1.5"/>
    </g>
    <circle cx="292" cy="56" r="14" fill="#D9A441"/>
    <path d="M286 56l4 4 8-9" stroke="#FFFFFF" stroke-width="2.5" fill="none" stroke-linecap="round"/>
  </g>
</svg>
