<svg xmlns="http://www.w3.org/2000/svg" viewBox="0 0 360 220" role="img" aria-label=" 2#0-: +I-@#5"*14 2 1@#5"%I-!'*2">
  <defs><clipPath id="scl"><rect width="360" height="220" rx="16"/></clipPath></defs>
  <g clip-path="url(#scl)">
    <rect width="360" height="220" fill="#FAF7EF"/>
    <rect width="360" height="108" fill="#DCEEFF"/>
    <rect x="124" y="18" width="112" height="58" rx="6" fill="#1E4E8C" stroke="#D9A441" stroke-width="3"/>
    <path d="M156 38c0-5 8-7 9-1 1-6 9-4 9 1 0 5-9 10-9 10s-9-5-9-10z" fill="#E76F51"/>
    <rect y="108" width="360" height="112" fill="#F3EBDD"/>
    <ellipse cx="180" cy="136" rx="108" ry="28" fill="#DCEEFF" opacity="0.75"/>
    <g>
      <circle cx="72" cy="112" r="14" fill="#E76F51"/><path d="M54 158q0-28 18-28t18 28z" fill="#E76F51"/>
      <circle cx="124" cy="124" r="14" fill="#D9A441"/><path d="M106 170q0-28 18-28t18 28z" fill="#D9A441"/>
      <circle cx="180" cy="118" r="15" fill="#1E4E8C"/><path d="M160 166q0-30 20-30t20 30z" fill="#1E4E8C"/>
      <circle cx="236" cy="124" r="14" fill="#5FA777"/><path d="M218 170q0-28 18-28t18 28z" fill="#5FA777"/>
      <circle cx="288" cy="112" r="14" fill="#263238"/><path d="M270 158q0-28 18-28t18 28z" fill="#263238"/>
    </g>
    <rect x="198" y="78" width="62" height="28" rx="12" fill="#FFFFFF" stroke="#1E4E8C" stroke-width="2"/>
    <g fill="#1E4E8C"><circle cx="216" cy="92" r="3"/><circle cx="229" cy="92" r="3"/><circle cx="242" cy="92" r="3"/></g>
  </g>
</svg>
