<svg xmlns="http://www.w3.org/2000/svg" viewBox="0 0 360 220" role="img" aria-label=" 2#0-: I+2@7I-+21H'@'GDL">
  <defs><clipPath id="ssr"><rect width="360" height="220" rx="16"/></clipPath></defs>
  <g clip-path="url(#ssr)">
    <rect width="360" height="220" fill="#DCEEFF"/>
    <circle cx="148" cy="104" r="56" fill="none" stroke="#1E4E8C" stroke-width="10"/>
    <path d="M192 148l52 44" stroke="#1E4E8C" stroke-width="12" stroke-linecap="round"/>
    <circle cx="148" cy="104" r="34" fill="#FAF7EF" stroke="#D9A441" stroke-width="3"/>
    <g fill="#1E4E8C" opacity="0.75">
      <rect x="128" y="96" width="40" height="5" rx="2.5"/><rect x="128" y="108" width="28" height="5" rx="2.5"/>
    </g>
    <g transform="translate(248 44)">
      <circle cx="36" cy="36" r="30" fill="#1E4E8C"/>
      <circle cx="36" cy="36" r="30" fill="none" stroke="#FFFFFF" stroke-opacity="0.25" stroke-width="2"/>
      <g fill="#5FA777">
        <path d="M18 30q10-12 24-8t14 16q-6 8-16 6t-16-8q-8-4-6-6z"/>
        <path d="M42 44q8-4 14 2t4 12q-6 6-12 4t-6-10q0-6 0-8z"/>
      </g>
    </g>
    <path d="M286 168c0-4 6-6 7 0 1-6 7-4 7 0 0 4-7 8-7 8s-7-4-7-8z" fill="#E76F51" opacity="0.85"/>
  </g>
</svg>
