<svg xmlns="http://www.w3.org/2000/svg" viewBox="0 0 360 220" role="img" aria-label=" 2#0-: 
8!
2#@#5"#9I#H'!1">
  <defs><clipPath id="scm"><rect width="360" height="220" rx="16"/></clipPath></defs>
  <g clip-path="url(#scm)">
    <rect width="360" height="220" fill="#E3F1E8"/>
    <ellipse cx="180" cy="118" rx="118" ry="54" fill="#DCEEFF" opacity="0.8"/>
    <g>
      <circle cx="180" cy="72" r="16" fill="#1E4E8C"/><path d="M158 124q0-32 22-32t22 32z" fill="#1E4E8C"/>
      <circle cx="96" cy="96" r="15" fill="#E76F51"/><path d="M76 148q0-30 20-30t20 30z" fill="#E76F51"/>
      <circle cx="264" cy="96" r="15" fill="#D9A441"/><path d="M244 148q0-30 20-30t20 30z" fill="#D9A441"/>
      <circle cx="118" cy="148" r="14" fill="#5FA777"/><path d="M100 192q0-28 18-28t18 28z" fill="#5FA777"/>
      <circle cx="242" cy="148" r="14" fill="#263238"/><path d="M224 192q0-28 18-28t18 28z" fill="#263238"/>
    </g>
    <path d="M108 132q36 18 72 0 36-18 72 0" stroke="#FAF7EF" stroke-width="8" fill="none" stroke-linecap="round"/>
    <circle cx="180" cy="132" r="10" fill="#D9A441" stroke="#FFFFFF" stroke-width="3"/>
    <path d="M-8 188q94 24 188 12t188-8v28H-8z" fill="#5FA777"/>
  </g>
</svg>
