<svg xmlns="http://www.w3.org/2000/svg" viewBox="0 0 360 220" role="img" aria-label=" 2#0-: H2'A%04##!">
  <defs><clipPath id="snw"><rect width="360" height="220" rx="16"/></clipPath></defs>
  <g clip-path="url(#snw)">
    <rect width="360" height="220" fill="#DCEEFF"/>
    <rect x="84" y="28" width="192" height="164" rx="12" fill="#FAF7EF" stroke="#1E4E8C" stroke-width="3"/>
    <rect x="84" y="28" width="192" height="38" rx="12" fill="#1E4E8C"/>
    <rect x="84" y="54" width="192" height="12" fill="#1E4E8C"/>
    <g fill="#FFFFFF">
      <circle cx="118" cy="47" r="5"/><circle cx="142" cy="47" r="5"/><circle cx="166" cy="47" r="5"/>
      <circle cx="190" cy="47" r="5"/><circle cx="214" cy="47" r="5"/><circle cx="238" cy="47" r="5"/>
    </g>
    <rect x="104" y="82" width="72" height="8" rx="4" fill="#D9A441"/>
    <rect x="104" y="100" width="152" height="5" rx="2.5" fill="#48555C" opacity="0.45"/>
    <rect x="104" y="112" width="140" height="5" rx="2.5" fill="#48555C" opacity="0.45"/>
    <rect x="104" y="124" width="148" height="5" rx="2.5" fill="#48555C" opacity="0.45"/>
    <rect x="104" y="144" width="56" height="20" rx="10" fill="#5FA777"/>
    <rect x="168" y="144" width="56" height="20" rx="10" fill="#E3F1E8" stroke="#5FA777" stroke-width="2"/>
    <g transform="translate(252 108)">
      <path d="M0 24V8l24-8v40l-24-8V16l-18 10z" fill="#E76F51"/>
      <path d="M28 12c8 4 12 12 12 20s-4 16-12 20" stroke="#E76F51" stroke-width="3" fill="none" stroke-linecap="round"/>
    </g>
  </g>
</svg>
