<svg xmlns="http://www.w3.org/2000/svg" viewBox="0 0 360 220" role="img" aria-label=" 2#0-: @#7H-@%H2*14 22+I-@#5"A%0
8!
">
  <defs><clipPath id="sst"><rect width="360" height="220" rx="16"/></clipPath></defs>
  <g clip-path="url(#sst)">
    <rect width="360" height="220" fill="#F3E3C2"/>
    <rect x="72" y="36" width="216" height="148" rx="12" fill="#FAF7EF" stroke="#1E4E8C" stroke-width="3"/>
    <path d="M180 36v148" stroke="#D9A441" stroke-width="3"/>
    <g fill="#1E4E8C" opacity="0.75">
      <rect x="92" y="64" width="68" height="5" rx="2.5"/><rect x="92" y="78" width="56" height="5" rx="2.5"/>
      <rect x="200" y="64" width="68" height="5" rx="2.5"/><rect x="200" y="78" width="52" height="5" rx="2.5"/>
      <rect x="92" y="110" width="60" height="5" rx="2.5"/><rect x="200" y="110" width="64" height="5" rx="2.5"/>
    </g>
    <rect x="104" y="42" width="54" height="24" rx="11" fill="#FFFFFF" stroke="#5FA777" stroke-width="2"/>
    <path d="M114 62l-8 10 16-6z" fill="#FFFFFF" stroke="#5FA777" stroke-width="2"/>
    <rect x="214" y="132" width="58" height="24" rx="11" fill="#FFFFFF" stroke="#E76F51" stroke-width="2"/>
    <path d="M258 150l10 8-14 2z" fill="#FFFFFF" stroke="#E76F51" stroke-width="2"/>
    <path d="M128 156c0-5 8-7 9-1 1-6 9-4 9 1 0 5-9 10-9 10s-9-5-9-10z" fill="#E76F51"/>
    <g transform="translate(44 148)">
      <circle cx="16" cy="16" r="14" fill="#5FA777"/>
      <path d="M2 44q0-22 14-22t14 22z" fill="#5FA777"/>
    </g>
    <g transform="translate(284 36)">
      <circle cx="16" cy="16" r="14" fill="#D9A441"/>
      <path d="M2 44q0-22 14-22t14 22z" fill="#D9A441"/>
    </g>
  </g>
</svg>
